<?xml version="1.0" encoding="utf-8"?>
<!-- Svg Vector Icons : http://www.onlinewebfonts.com/icon -->
<!DOCTYPE svg PUBLIC "-//W3C//DTD SVG 1.1//EN" "http://www.w3.org/Graphics/SVG/1.1/DTD/svg11.dtd">
<svg version="1.1" xmlns="http://www.w3.org/2000/svg" xmlns:xlink="http://www.w3.org/1999/xlink" x="0px" y="0px" viewBox="0 0 1000 1000" enable-background="new 0 0 1000 1000" xml:space="preserve">
<metadata> Svg Vector Icons : http://www.onlinewebfonts.com/icon </metadata>
<g><path d="M990,882.7c0,17.8-15.2,32.1-33.3,30.6c-15.5-1.3-28-15.7-28.1-31.2C928.2,740.9,782,594.7,698.3,584c-11.3-1.4-21.8-6.8-28.8-15.7c-5.9-7.4-9.6-16.8-9.6-26.8c0-21.8,15.9-39.1,36.6-42.9c64.4-28.5,109.8-92.2,109.8-167.2c0-101.4-82.3-183.8-183.8-183.8v-0.3c-15.9-1-28.7-13.9-28.7-30.2c0-16.3,12.7-29.2,28.7-30.2v-0.3c0.5,0,0.8,0.2,1.3,0.2c0.2,0,0.5-0.2,0.7-0.2c0.7,0,1.2,0.3,1.8,0.3c133.5,2.2,241.1,110.7,241.1,244.6c0,88.2-46.9,164.8-116.9,207.9C890.1,591.6,990,724.9,990,882.7L990,882.7L990,882.7L990,882.7z"/><path d="M505.6,539.5L505.6,539.5c69.9-43.1,116.9-119.7,116.9-207.9c0-135.3-109.7-245-245-245c-135.3,0-245,109.7-245,245c0,88.2,47.1,164.8,116.9,207.9C109.9,591.6,10,724.9,10,882.7c0,16.9,13.7,30.7,30.7,30.7c16.9,0,30.7-13.7,30.7-30.7c0-169,137-306.2,306.2-306.2c169,0,306.2,137,306.2,306.2c0,16.9,13.7,30.7,30.7,30.7c16.9,0,30.7-13.7,30.7-30.7C745,724.9,645.1,591.6,505.6,539.5z M193.8,331.6c0-101.4,82.3-183.8,183.8-183.8c101.6,0,183.8,82.3,183.8,183.8S479,515.3,377.5,515.3C276.1,515.3,193.8,433,193.8,331.6z"/></g>
</svg>