<?xml version="1.0" encoding="utf-8"?>
<!-- Svg Vector Icons : http://www.onlinewebfonts.com/icon -->
<!DOCTYPE svg PUBLIC "-//W3C//DTD SVG 1.1//EN" "http://www.w3.org/Graphics/SVG/1.1/DTD/svg11.dtd">
<svg version="1.1" xmlns="http://www.w3.org/2000/svg" xmlns:xlink="http://www.w3.org/1999/xlink" x="0px" y="0px" viewBox="0 0 1000 1000" enable-background="new 0 0 1000 1000" xml:space="preserve">
<metadata> Svg Vector Icons : http://www.onlinewebfonts.com/icon </metadata>
<g><path d="M888.1,843L755.3,556l-8,5c-2.7,1.7-5,3.9-6.6,6.4l-33.4,51.3c-10.4,15.9-28.2,25.9-47.5,26.8l-62.2,2.6c-3.1,0.1-6.3,1-9,2.3l-8.7,4.4l-62.1,134.3l85.6,185.2c8.6,18.6,34.7,21,46.7,4.2l65.1-91.2c7.3-9.8,16.8-15,23.1-11.3l124.3,4.2C882.5,880.9,896.3,860.9,888.1,843 M533.2,678.8c-8.4,4-17.9,6.2-27.3,6.2c-9.5,0-19-2.2-27.4-6.5l-15.5-7.9l-39.8-20.1c-2.8-1.4-5.9-2.2-9-2.3l-62.3-2.6c-19.3-0.9-37.1-10.9-47.5-26.8L271,567.5c-1.7-2.6-4-4.9-6.6-6.4l-17.2-10.6L111.9,843.3c-8.1,17.5,5.1,37.2,24.5,37.2h1l124.3-4.2h1c8.8,0,17,4.2,22.1,11.3l65.1,91.2c5.4,7.6,13.8,11.3,22.1,11.3c10,0,20-5.4,24.6-15.5L499.9,751l33.4-72.3L533.2,678.8z M207.7,398c3.7,6.9,5.7,14.3,6,22l2.7,60.8c0.4,8.6,5.1,16.4,12.5,21.1l3.9,2.4l13.8,8.5l13.8,8.5l21,13c6.7,4.1,12.3,9.7,16.5,16.1l33.5,51.3c4.7,7.3,12.7,11.8,21.6,12.2l62.3,2.6c7.9,0.3,15.5,2.3,22.5,5.9l3.3,1.7l51.9,26.3c3.9,2,8.2,2.9,12.4,2.9c4.2,0,8.5-0.9,12.4-2.9l36.6-18.5l18.8-9.5c1.4-0.7,2.8-1.4,4.3-1.9c5.8-2.3,12-3.7,18.2-4l1.4-0.1l60.9-2.6c8.8-0.4,16.8-5,21.6-12.2l33.4-51.3c4.2-6.5,9.9-12,16.5-16.1l11.9-7.4l40.6-25.2c7.4-4.6,12.1-12.4,12.5-21.1l2.7-60.8c0.3-7.7,2.4-15.2,6-22l28.7-54c4.1-7.6,4.1-16.7,0-24.2l-28.5-54c-3.7-6.8-5.7-14.3-6-22l-2.7-60.7c-0.4-8.6-5.1-16.4-12.5-21.1l-52.6-32.7c-6.7-4.1-12.3-9.7-16.5-16.1l-33.4-51.3c-4.7-7.3-12.7-11.8-21.6-12.2L596,46.9c-7.9-0.3-15.5-2.3-22.5-5.9l-55.4-28c-3.9-2-8.2-2.9-12.4-2.9c-4.2,0-8.5,0.9-12.4,2.9l-55.4,28c-7,3.6-14.7,5.6-22.5,5.9l-62.3,2.6c-8.9,0.4-16.8,4.9-21.6,12.2L298,113c-4.2,6.5-9.9,12-16.5,16.1L229,161.8c-7.4,4.6-12.1,12.4-12.5,21.1l-2.7,60.8c-0.3,7.7-2.4,15.2-6,22l-28.7,54c-4.1,7.6-4.1,16.6,0,24.2L207.7,398z"/></g>
</svg>