<svg xmlns="http://www.w3.org/2000/svg" xmlns:xlink="http://www.w3.org/1999/xlink" xmlns:a="http://ns.adobe.com/AdobeSVGViewerExtensions/3.0/" version="1.1" x="0px" y="0px" viewBox="-3.984 -5.158 512 512" enable-background="new -3.984 -5.158 512 512" xml:space="preserve" width="512px" height="512px"><path display="none" fill="none" stroke="#000000" stroke-width="16" stroke-miterlimit="10" d="M123.026,264.144l187-188l159,161  v190h-124v-120h-74v120h-213v-163H123.026z M496.027,264.144l-70.117-70.872l0.117-70.128h-36l-0.429,33.426l-79.571-80.426l-83,83  h-114l-95,105h40h65l187-188L496.027,264.144L496.027,264.144z M139.026,307.144h-52v51h52V307.144z M232.026,307.144h-52v51h52  V307.144z M432.027,307.144h-52v51h52V307.144z"/><path display="none" fill="none" stroke="#000000" stroke-width="16" stroke-miterlimit="10" d="M24.65,230.026v-25.031h133.117  V51.399h-10.24V28.644h218.448v22.755h-11.377v154.734h131.979v25.031h-7.964v234.378h16.479v9.102H18.961v-10.24h14.791V230.026  H24.65z M129.323,261.884H86.088v59.163h43.235V261.884z M129.323,364.281H86.088v59.164h43.235V364.281z M425.139,260.746h-43.234  v59.163h43.234V260.746z M425.139,363.144h-43.234v59.163h43.234V363.144z M237.41,58.225h-43.235v59.163h43.235V58.225z   M237.41,159.486h-43.235v59.163h43.235V159.486z M237.41,260.746h-43.235v59.163h43.235V260.746z M237.41,364.281h-43.235v110.362  h43.235V364.281z M320.465,58.225h-43.234v59.163h43.234V58.225z M320.465,159.486h-43.234v59.163h43.234V159.486z M320.465,260.746  h-43.234v59.163h43.234V260.746z M320.465,365.419h-43.234v59.164h43.234V365.419z"/><path display="none" fill="none" stroke="#000000" stroke-width="16" stroke-miterlimit="10" d="M480.967,486.549  c0,4.826-3.913,8.738-8.739,8.738h-268c-4.827,0-8.739-3.912-8.739-8.738V302.055c0-4.826,3.912-8.738,8.739-8.738h268  c4.826,0,8.739,3.912,8.739,8.738V486.549z M195.246,352.548H41.825c-4.827,0-8.739,3.913-8.739,8.739v125.262  c0,4.826,3.913,8.738,8.739,8.738h153.42V352.548z M153.978,387.505H74.354v24.275h79.624V387.505z M257.633,328.272h-24.275v59.232  h24.275V328.272z M318.969,328.272h-24.275v59.232h24.275V328.272z M380.305,328.272h-24.276v59.232h24.276V328.272z   M441.641,328.272h-24.275v59.232h24.275V328.272z M288.706,155.432c0-4.827-3.912-8.739-8.739-8.739h-37.869  c-4.826,0-8.739,3.913-8.739,8.739v137.885h55.347V155.432z M368.005,205.924c0-4.827-3.912-8.739-8.738-8.739h-37.87  c-4.826,0-8.739,3.913-8.739,8.739v87.392h55.348V205.924z M273.169,124.359c24.275-82.537,43.533-48.874,60.203-34.309  c16.669,14.565,57.428,17.155,61.312-28.483c3.884-45.638-75.715-36.251-75.715-36.251c-14.403-7.769-5.017-29.131-57.938-8.739  c-52.92,20.391-15.536,107.783-15.536,107.783H273.169z M356.677,171.939c10.681-9.71,33.338-1.942,33.338-1.942  c47.907,18.944,67.647,6.797,71.531,0c3.885-6.797,25.247-53.406-45.638-53.406c-70.884,0-82.536,55.348-82.536,55.348H356.677z"/><path display="none" fill="none" stroke="#000000" stroke-width="16" stroke-miterlimit="10" d="M30.136,108.901l227.391-73.996  l226.599,72.389l0.139,20.605H29.789L30.136,108.901z M456.517,157.399H57.537 M456.517,413.385H57.537 M33.288,468.382h447.479  v-25.499H33.288V468.382z M140.529,186.897H82.032v196.489h58.497V186.897z M237.693,383.387h-58.496V186.897h58.496V383.387z   M334.857,383.387h-58.496V186.897h58.496V383.387z M432.022,383.387h-58.496V186.897h58.496V383.387z"/><path display="none" fill="none" stroke="#000000" stroke-width="16" stroke-miterlimit="10" d="M463.656,263.283  c-6.037,109.225-96.519,195.933-207.252,195.933c-87.896,0-163.032-54.632-193.304-131.792 M449.478,175.279  C419.057,98.428,344.079,44.071,256.404,44.071c-110.717,0-201.189,86.685-207.249,195.889 M55.894,305.099l-8.383,23.787  l29.178-10.645L55.894,305.099z M457.185,199.368l9.357-23.499l-30.012,9.05L457.185,199.368z M194.999,298.231  c4.5,44.997,61.405,47.998,61.405,47.998c62.334,0,58.588-47.998,58.588-47.998c0-35.999-58.588-46.587-58.588-46.587  c-42.999-9-50.906-41.907-50.906-41.907c-14.999-59.997,50.906-60.997,50.906-60.997c52.406,2,51.088,40.248,51.088,40.248   M256.404,116.741l-1.407,269.986"/><path display="none" fill="none" stroke="#000000" stroke-width="16" stroke-miterlimit="10" d="M494.435,223.978v29.426H115.298  v-29.426h39.612c0,0,11.408-109.52,92.531-145.136v99.3c0,5.478,2.219,10.424,5.795,14.011c3.587,3.577,8.532,5.795,14.01,5.795  c10.933,0,19.805-8.862,19.805-19.806V68.6c5.173-0.532,10.537-0.803,16.117-0.803c0,0,7.628-0.396,19.534,1.29v109.056  c0,10.944,8.861,19.806,19.806,19.806c5.466,0,10.412-2.218,13.999-5.795c3.588-3.587,5.806-8.534,5.806-14.011V80.325  c37.959,16.603,82.392,55.026,94.773,143.653H494.435z M372.421,435.531L38.923,350.065c-39.386-20.756-6.31-43.307-6.31-43.307  l350.961,72.811C330.009,410.796,372.421,435.531,372.421,435.531c46.996,0,29.829-45.296,29.829-45.296l27.165-37.352  c-207.13-16.978-390.492-88.285-390.492-88.285l3.242,44.657 M364.899,393.63c0,0,18.676-29.236,37.352-3.395 M181.483,386.6  c0,0-17.201-25.656,11.476-46.576"/><path display="none" d="M139.384,37.113l56,93c0,0,8.5,11.5-3.5,22.5l-44.5,38.5c0,0-8,9-1,22c0,0,39,98,154.5,151c0,0,6.5,4.5,17-5  l31-38.5c0,0,11.5-17.5,29.5-7.5l88.5,52.065c0,0,8,1.935,4,24.435c0,0-4,35-26.5,49.5c0,0-48.5,42-114,21.5c0,0-201.5-52-276.5-264  c0,0-20-49-8-87c0,0,14-37.5,30-53C75.884,56.613,87.884,35.613,139.384,37.113z"/><path display="none" d="M257.027,26.644c-122.61,0-222,85.96-222,192s99.39,192,222,192v66c0,0,119.33-94.06,142.11-110.49  c48.819-35.21,79.89-88.22,79.89-147.51C479.027,112.604,379.637,26.644,257.027,26.644z M142.027,251.644c-15.46,0-28-12.54-28-28  s12.54-28,28-28s28,12.54,28,28S157.487,251.644,142.027,251.644z M258.527,251.644c-15.46,0-28-12.54-28-28s12.54-28,28-28  s28,12.54,28,28S273.987,251.644,258.527,251.644z M375.027,251.644c-15.46,0-28-12.54-28-28s12.54-28,28-28s28,12.54,28,28  S390.487,251.644,375.027,251.644z"/><path d="M279.598,365.547c0,8.119-6.58,14.697-14.697,14.697h-15.747c-8.117,0-14.698-6.578-14.698-14.697V209.127  c0-8.116,6.581-14.697,14.698-14.697h15.747c8.117,0,14.697,6.581,14.697,14.697V365.547z M257.028,123.043  c-14.495,0-26.246,11.751-26.246,26.246c0,14.494,11.751,26.244,26.246,26.244c14.494,0,26.244-11.75,26.244-26.244  C283.272,134.794,271.522,123.043,257.028,123.043z"/><circle fill="none" stroke="#000000" stroke-width="28" stroke-miterlimit="10" cx="257.027" cy="251.644" r="201"/><path display="none" d="M257.027,26.644c-122.61,0-222,85.96-222,192s99.39,192,222,192v66c0,0,119.33-94.06,142.109-110.49  c48.82-35.21,79.891-88.22,79.891-147.51C479.027,112.604,379.636,26.644,257.027,26.644z M257.027,110.644  c23.22,0,42.029,18.82,42.029,42.03c0,23.21-18.81,42.03-42.029,42.03c-23.21,0-42.03-18.82-42.03-42.03  C214.997,129.463,233.816,110.644,257.027,110.644z M332.517,303.644H181.546v-27.45c0-32.69,26.5-59.19,59.18-59.19h32.6  c32.69,0,59.19,26.5,59.19,59.19V303.644z"/><path display="none" fill="none" stroke="#000000" stroke-width="16" stroke-miterlimit="10" d="M257.027,77.977  c-54.68,0-99,44.32-99,99c0,19.78,5.8,38.2,15.79,53.67c17.63,27.271,83.21,101.331,83.21,101.331s65.5-74.01,83.14-101.241  c10.04-15.48,15.86-33.94,15.86-53.76C356.027,122.297,311.707,77.977,257.027,77.977z M295.937,202.137  c-8.25,12.74-22.601,21.17-38.91,21.17c-16.33,0-30.69-8.45-38.94-21.21c-4.68-7.24-7.39-15.86-7.39-25.12  c0-25.59,20.74-46.33,46.33-46.33s46.33,20.74,46.33,46.33C303.357,186.257,300.637,194.897,295.937,202.137z M363.553,219.977  h9.074c19.197,0,34.761,15.563,34.761,34.761L431.64,390.55c0,19.197-15.563,34.761-34.761,34.761H117.174  c-19.198,0-34.761-15.563-34.761-34.761l24.252-135.812c0-19.198,15.563-34.761,34.761-34.761h10.127"/><path display="none" fill="none" stroke="#000000" stroke-width="16" stroke-miterlimit="10" d="M418.027,237.144v190h-124v-120h-74  v120h-124v-190 M257.027,76.144 M374.91,193.272l0.117-70.128h-36l-0.429,33.426 M445.027,264.144L445.027,264.144 M381.027,307.144  h-52v51h52V307.144z M257.027,76.144 M445.027,264.144l-188-188l-188,188l0,0l0,0 M133.027,358.144h52v-51h-52V358.144z"/><path display="none" fill="none" stroke="#000000" stroke-width="16" stroke-miterlimit="10" d="M136.875,130.598  c10.443-19.317,27.595-34.474,48.334-42.35c-2.064-4.529-3.214-9.563-3.214-14.858c0-19.814,16.069-35.882,35.891-35.882  c19.813,0,35.882,16.068,35.882,35.882c0,5.295-1.149,10.329-3.214,14.858c20.691,7.858,37.812,22.962,48.262,42.215   M378.96,186.445v-12.847c0-23.748-19.252-43-43-43H99.729c-23.748,0-43,19.252-43,43v249.181c0,23.748,19.252,43,43,43H335.96  c23.748,0,43-19.252,43-43v-59.667 M282.176,400.768l175.147-165.326L420.22,195.61L280.54,311.284l-55.655-54.563l-48.562,48.562  L282.176,400.768z"/><path display="none" fill="none" stroke="#000000" stroke-width="16" stroke-miterlimit="10" d="M107.034,424.032  c0,11.598-9.402,21-21,21H71.037c-11.598,0-21-9.402-21-21V208.046c0-11.598,9.402-21,21-21h14.997c11.598,0,21,9.402,21,21V424.032  z M155.032,210.545v214.489c0,0,98.994,44.997,247.487,32.998c0,0,53.997-58.496,61.497-247.487c0,0-4.499-22.499-167.991-22.499  c0,0,40.498-76.893-4.5-133.493c0,0-26.752-25.499-33.625,0C257.9,54.553,267.526,146.048,155.032,210.545z"/></svg>