<?xml version="1.0" encoding="iso-8859-1"?>
<!-- Generator: Adobe Illustrator 18.0.0, SVG Export Plug-In . SVG Version: 6.00 Build 0)  -->
<!DOCTYPE svg PUBLIC "-//W3C//DTD SVG 1.1//EN" "http://www.w3.org/Graphics/SVG/1.1/DTD/svg11.dtd">
<svg version="1.1" id="Capa_1" xmlns="http://www.w3.org/2000/svg" xmlns:xlink="http://www.w3.org/1999/xlink" x="0px" y="0px"
	 viewBox="0 0 57.276 57.276" style="enable-background:new 0 0 57.276 57.276;" xml:space="preserve">
<path d="M45.656,19.271c0.078-0.098,0.163-0.189,0.232-0.294c0.092-0.139,0.162-0.291,0.239-0.439
	c0.054-0.106,0.119-0.205,0.165-0.315c0.072-0.173,0.118-0.357,0.168-0.54c0.027-0.099,0.067-0.191,0.088-0.292
	c0.058-0.288,0.09-0.586,0.09-0.891c0-0.287-0.033-0.566-0.085-0.838c-0.016-0.086-0.043-0.166-0.064-0.25
	c-0.046-0.184-0.1-0.365-0.168-0.54c-0.036-0.092-0.076-0.18-0.118-0.269c-0.074-0.157-0.156-0.307-0.247-0.454
	c-0.054-0.088-0.107-0.175-0.167-0.259c-0.095-0.132-0.201-0.254-0.309-0.375c-0.074-0.083-0.142-0.169-0.222-0.246
	c-0.09-0.087-0.192-0.16-0.29-0.239c-0.272-0.222-0.565-0.415-0.884-0.569c-0.015-0.007-0.028-0.016-0.042-0.023
	c-0.201-0.095-0.412-0.167-0.628-0.231c-0.02-0.006-0.038-0.016-0.059-0.021C42.024,5.189,35.82,0,28.638,0
	S15.252,5.189,13.919,12.186c-0.02,0.006-0.038,0.016-0.059,0.021c-0.216,0.064-0.427,0.137-0.628,0.231
	c-0.015,0.007-0.028,0.016-0.042,0.023c-0.319,0.155-0.613,0.348-0.885,0.57c-0.097,0.079-0.199,0.152-0.289,0.238
	c-0.08,0.077-0.148,0.163-0.222,0.246c-0.109,0.121-0.214,0.243-0.309,0.375c-0.06,0.084-0.113,0.171-0.167,0.259
	c-0.091,0.146-0.173,0.297-0.246,0.454c-0.042,0.089-0.082,0.177-0.118,0.27c-0.068,0.175-0.122,0.355-0.168,0.539
	c-0.021,0.084-0.047,0.165-0.064,0.251c-0.052,0.272-0.085,0.551-0.085,0.838c0,0.305,0.032,0.603,0.09,0.891
	c0.021,0.102,0.061,0.195,0.089,0.294c0.05,0.182,0.095,0.365,0.167,0.537c0.046,0.111,0.111,0.21,0.166,0.317
	c0.076,0.148,0.146,0.3,0.238,0.438c0.069,0.105,0.155,0.196,0.232,0.294c0.098,0.125,0.192,0.253,0.302,0.366
	c0.089,0.091,0.191,0.168,0.288,0.251c0.118,0.102,0.232,0.208,0.36,0.297c0.106,0.074,0.222,0.132,0.334,0.197
	c0.135,0.078,0.267,0.159,0.411,0.223c0.119,0.053,0.245,0.089,0.37,0.132c0.15,0.052,0.297,0.105,0.454,0.141
	c0.13,0.03,0.264,0.042,0.398,0.06c0.122,0.017,0.24,0.048,0.365,0.055c1.961,4.484,6.028,7.71,10.737,8.689v24.593
	c0,1.654,1.346,3,3,3s3-1.346,3-3V29.684c4.71-0.979,8.776-4.206,10.737-8.689c0.125-0.007,0.243-0.038,0.365-0.055
	c0.134-0.018,0.268-0.031,0.398-0.06c0.156-0.036,0.304-0.09,0.454-0.141c0.124-0.043,0.25-0.079,0.369-0.132
	c0.144-0.064,0.276-0.145,0.411-0.223c0.112-0.065,0.228-0.122,0.333-0.196c0.128-0.09,0.242-0.195,0.36-0.297
	c0.097-0.084,0.199-0.16,0.288-0.251C45.465,19.524,45.558,19.396,45.656,19.271z M29.638,47.586l-2,2v-2.172l2-2V47.586z
	 M29.638,42.586l-2,2v-2.172l2-2V42.586z M29.638,37.586l-2,2v-2.172l2-2V37.586z M28.638,55.276c-0.552,0-1-0.448-1-1v-1.862l2-2
	v3.862C29.638,54.828,29.19,55.276,28.638,55.276z M29.638,32.586l-2,2v-4.624c0.332,0.022,0.665,0.038,1,0.038s0.668-0.015,1-0.038
	V32.586z M30.751,27.819l-0.254,0.036c-0.337,0.049-0.652,0.085-0.957,0.109C29.241,27.986,28.941,28,28.638,28
	s-0.603-0.014-0.902-0.035c-0.305-0.024-0.62-0.061-0.957-0.109l-0.254-0.036c-3.994-0.671-7.504-3.208-9.395-6.819h1.508
	c0.553,0,1-0.447,1-1s-0.447-1-1-1h-2.377h-1.123c-1.379,0-2.5-1.121-2.5-2.5c0-0.166,0.018-0.328,0.049-0.484
	c0.013-0.065,0.037-0.125,0.055-0.188c0.025-0.088,0.047-0.176,0.081-0.26c0.034-0.083,0.078-0.161,0.121-0.239
	c0.029-0.054,0.055-0.11,0.088-0.162c0.061-0.095,0.132-0.184,0.205-0.27c0.021-0.025,0.041-0.052,0.063-0.077
	c0.095-0.102,0.197-0.197,0.309-0.282c0.003-0.002,0.006-0.005,0.008-0.007c0.358-0.272,0.794-0.451,1.275-0.5L15.191,14h2.447
	c0.553,0,1-0.447,1-1s-0.447-1-1-1h-1.635c1.37-5.778,6.605-10,12.635-10s11.265,4.222,12.635,10h-0.635c-0.553,0-1,0.447-1,1
	s0.447,1,1,1h1.447l0.299,0.03c0.481,0.049,0.917,0.228,1.275,0.5c0.003,0.002,0.006,0.005,0.008,0.007
	c0.111,0.085,0.214,0.18,0.309,0.282c0.022,0.024,0.042,0.051,0.063,0.077c0.074,0.086,0.144,0.175,0.205,0.27
	c0.033,0.052,0.059,0.108,0.088,0.162c0.043,0.078,0.087,0.156,0.121,0.239c0.034,0.083,0.056,0.172,0.081,0.26
	c0.018,0.063,0.042,0.124,0.055,0.188c0.031,0.157,0.049,0.318,0.049,0.484c0,1.379-1.121,2.5-2.5,2.5h-1.123h-3.377
	c-0.553,0-1,0.447-1,1s0.447,1,1,1h2.508C38.255,24.611,34.745,27.148,30.751,27.819z"/>
<g>
</g>
<g>
</g>
<g>
</g>
<g>
</g>
<g>
</g>
<g>
</g>
<g>
</g>
<g>
</g>
<g>
</g>
<g>
</g>
<g>
</g>
<g>
</g>
<g>
</g>
<g>
</g>
<g>
</g>
</svg>
